<?xml version="1.0" encoding="utf-8"?>
<!-- Generator: Adobe Illustrator 15.1.0, SVG Export Plug-In . SVG Version: 6.00 Build 0)  -->
<!DOCTYPE svg PUBLIC "-//W3C//DTD SVG 1.1//EN" "http://www.w3.org/Graphics/SVG/1.1/DTD/svg11.dtd">
<svg version="1.1" id="Layer_1" xmlns="http://www.w3.org/2000/svg" xmlns:xlink="http://www.w3.org/1999/xlink" x="0px" y="0px"
	 width="144.073px" height="151.38px" viewBox="0 0 144.073 151.38" enable-background="new 0 0 144.073 151.38"
	 xml:space="preserve">
<g>
	<path fill="#0098FF" d="M71.617,0C33.391,0,2.292,31.099,2.292,69.325c0,38.225,31.1,69.325,69.325,69.325
		s69.324-31.1,69.324-69.325C140.941,31.099,109.842,0,71.617,0z M71.617,132.493c-34.831,0-63.169-28.338-63.169-63.168
		c0-34.831,28.338-63.168,63.169-63.168s63.168,28.337,63.168,63.168C134.785,104.155,106.448,132.493,71.617,132.493z"/>
	<path fill="#0098FF" d="M89.047,26.434c-2.187-2.105-4.678-3.766-7.472-4.981c-2.795-1.215-5.731-1.822-8.809-1.822
		c-2.431,0-4.8,0.243-7.108,0.729c-2.309,0.486-4.556,1.135-6.743,1.944c-2.187,0.892-4.252,1.944-6.196,3.159
		c-1.944,1.215-3.727,2.593-5.346,4.131l5.468,7.897c1.051-0.809,2.247-1.619,3.584-2.43c1.336-0.809,2.773-1.579,4.313-2.308
		c1.458-0.647,2.977-1.173,4.556-1.58c1.58-0.404,3.139-0.607,4.678-0.607c1.862,0,3.604,0.385,5.225,1.154
		c1.619,0.771,3.037,1.762,4.253,2.977c1.133,1.378,2.023,2.916,2.673,4.617c0.647,1.701,0.972,3.524,0.972,5.468
		c0,1.783-0.386,3.544-1.154,5.285c-0.771,1.743-1.641,3.341-2.612,4.799c-1.135,1.54-2.309,2.937-3.523,4.192
		c-1.215,1.256-2.309,2.289-3.28,3.098c-1.621,1.458-3.099,2.937-4.435,4.435c-1.337,1.5-2.451,3.059-3.342,4.678
		c-0.972,1.701-1.722,3.402-2.247,5.103c-0.528,1.701-0.79,3.482-0.79,5.346c0,1.215,0.079,2.877,0.243,4.982
		c0.161,2.105,0.404,3.93,0.729,5.467h11.664c-0.163-0.809-0.285-2.045-0.364-3.705c-0.082-1.66-0.122-2.896-0.122-3.707
		c0-1.943,0.201-3.766,0.608-5.467c0.404-1.701,1.012-3.281,1.822-4.738c0.729-1.376,1.659-2.693,2.794-3.949
		c1.134-1.255,2.431-2.491,3.889-3.706c2.187-1.781,4.109-3.664,5.771-5.649c1.659-1.984,3.057-4.029,4.192-6.136
		c0.972-1.944,1.72-3.928,2.247-5.954c0.526-2.024,0.79-4.01,0.79-5.954c0-3.32-0.628-6.397-1.883-9.234
		C92.833,31.132,91.153,28.621,89.047,26.434z"/>
	<path fill="#0098FF" d="M69.972,105.286c-2.512,0-4.658,0.852-6.439,2.553c-1.782,1.701-2.673,3.846-2.673,6.439
		c0,2.672,0.851,4.92,2.552,6.742c1.7,1.822,3.846,2.734,6.439,2.734c2.51,0,4.636-0.893,6.379-2.674
		c1.74-1.781,2.611-4.051,2.611-6.803c0-2.512-0.911-4.637-2.733-6.379S72.239,105.286,69.972,105.286z"/>
</g>
</svg>
